<svg xmlns="http://www.w3.org/2000/svg" viewBox="0 0 100 100"><path d="M74.95 74.862L64.034 64.798a1.64 1.64 0 01-.073-2.345 1.728 1.728 0 012.396-.07l10.918 10.062c.678.626.71 1.68.071 2.345a1.724 1.724 0 01-2.394.072M33.238 36.665L22.32 26.603a1.639 1.639 0 01-.073-2.345 1.724 1.724 0 012.395-.071L35.56 34.25c.68.625.711 1.68.073 2.345a1.726 1.726 0 01-2.395.07M24.51 74.736l10.022-10.921a1.727 1.727 0 012.393-.125c.693.61.75 1.664.128 2.343L27.032 76.955c-.623.677-1.7.734-2.392.125a1.64 1.64 0 01-.13-2.344m38.03-41.72l10.02-10.922a1.727 1.727 0 012.394-.125c.692.61.75 1.664.128 2.343L65.06 35.234c-.623.678-1.7.735-2.393.125a1.641 1.641 0 01-.128-2.343M48.828 84.957l-.172-14.68c-.01-.913.744-1.668 1.675-1.678.932-.01 1.703.727 1.715 1.64l.17 14.68c.01.913-.743 1.667-1.674 1.678-.932.011-1.703-.727-1.714-1.64m-.838-55.914l-.171-14.68c-.012-.914.742-1.668 1.673-1.679.932-.011 1.703.727 1.714 1.64l.172 14.681c.011.912-.744 1.667-1.676 1.677-.93.01-1.702-.727-1.712-1.639M13.97 47.96l14.994.047c.932.003 1.692.752 1.688 1.664-.001.912-.766 1.656-1.7 1.653l-14.992-.046c-.933-.003-1.693-.752-1.69-1.664.003-.914.768-1.658 1.7-1.655m57.111-.001l14.995.045c.931.004 1.691.752 1.688 1.664-.003.914-.768 1.658-1.7 1.655l-14.994-.047c-.932-.004-1.692-.752-1.688-1.664.003-.912.768-1.657 1.7-1.653m-21.485-13.7c-8.66 0-15.707 6.9-15.707 15.381 0 8.482 7.047 15.382 15.707 15.382 8.663 0 15.71-6.9 15.71-15.382 0-8.48-7.047-15.38-15.71-15.38zm12.5 15.381c0 6.748-5.608 12.24-12.5 12.24-6.891 0-12.498-5.492-12.498-12.24s5.607-12.24 12.498-12.24c6.892 0 12.5 5.492 12.5 12.24z"/></svg>