<svg xmlns="http://www.w3.org/2000/svg" viewBox="0 0 100 100"><path d="M50.968 80.026c9.779 1.005 18.052-2.08 24.91-8.938 1.636-1.636 3.068-3.473 4.562-5.244.66-.784.705-1.365.3-1.977-.4-.603-1.07-.746-2.026-.51-6.757 1.66-13.45 1.548-19.808-1.408-10.275-4.777-16.1-12.924-17.538-24.012-.841-6.488.823-12.526 4.205-18.117.106-.174.211-.349.32-.521.382-.604.393-1.209-.068-1.764-.464-.556-1.087-.655-1.744-.407-9.8 3.698-17.457 9.816-21.078 19.766-4.542 12.479-2.024 23.725 7.337 33.295 4.596 4.7 10.274 7.648 16.71 9.143 1.29.3 2.611.467 3.918.694zm24.915-13.1c-.595.647-1.115 1.24-1.663 1.803-3.723 3.84-8.029 6.783-13.365 7.878-9.124 1.872-17.54.028-25.072-5.324-10.785-7.662-14.367-20.377-10.524-32.334 2.612-8.124 8.235-13.679 15.826-17.438.065-.031.148-.03.216-.042-4.79 11.624-3.96 22.735 3.617 32.825C52.542 64.45 63.157 68.25 75.883 66.925z"/></svg>