<svg xmlns="http://www.w3.org/2000/svg" viewBox="0 0 100 100"><path d="M76.829 54.14c-.947 0-1.892.101-2.816.304-2.956-6.925-9.85-11.545-17.31-11.545-9.31 0-17.051 6.637-18.593 15.854h-.065c-6.087 0-11.04 5.013-11.04 11.175 0 6.16 4.953 11.17 11.04 11.17H76.83c7.342 0 13.315-6.046 13.315-13.479 0-7.433-5.973-13.48-13.315-13.48zm10.637 13.48c0 5.943-4.771 10.779-10.637 10.779H38.045c-4.61 0-8.361-3.8-8.361-8.47 0-4.674 3.75-8.475 8.361-8.475.308 0 .645.024 1.06.076l1.36.17.137-1.375c.839-8.394 7.762-14.724 16.1-14.724 6.822 0 12.946 4.382 15.238 10.909l.433 1.232 1.233-.397a10.58 10.58 0 013.223-.504c5.866 0 10.637 4.835 10.637 10.778zm-65.24-30.733a1.45 1.45 0 002.044.122 1.459 1.459 0 00.122-2.05l-8.508-9.606a1.449 1.449 0 00-2.043-.12 1.46 1.46 0 00-.122 2.049l8.507 9.605M21.21 60.644l-9.38 8.75a1.46 1.46 0 00-.074 2.053 1.45 1.45 0 002.047.073l9.38-8.75a1.458 1.458 0 00.074-2.051 1.451 1.451 0 00-2.047-.075m37.665-33.37a1.451 1.451 0 00-2.046-.074l-9.38 8.75a1.459 1.459 0 00-.073 2.052 1.448 1.448 0 002.046.073l9.38-8.75a1.458 1.458 0 00.073-2.05m-22.168 5.658a1.453 1.453 0 001.555-1.334l1-12.805a1.456 1.456 0 00-1.33-1.561 1.454 1.454 0 00-1.557 1.334l-.999 12.806a1.454 1.454 0 001.331 1.56M19.013 48.021a1.457 1.457 0 00-1.308-1.579l-12.757-1.19a1.452 1.452 0 00-.268 2.89l12.757 1.19a1.453 1.453 0 001.576-1.311m5.487.467c.527-5.881 5.727-10.236 11.593-9.708a10.636 10.636 0 017.288 3.871 18.58 18.58 0 012.091-1.78 13.367 13.367 0 00-9.135-4.83c-7.37-.663-13.906 4.81-14.567 12.2-.428 4.777 1.708 9.192 5.257 11.904.4-.69.94-1.445 1.658-2.184-2.823-2.159-4.524-5.673-4.184-9.473"/></svg>