<svg xmlns="http://www.w3.org/2000/svg" viewBox="0 0 100 100"><path d="M71.831 73.188a27.804 27.804 0 007.208-.61c4.763-1.042 8.608-3.837 11.93-7.485.49-.538.956-1.1 1.487-1.714-11.362 1.258-20.84-2.355-27.646-12.003-6.766-9.588-7.506-20.147-3.23-31.193-.06.012-.134.01-.192.04C54.79 23.7 49.88 28.811 47.47 36.2a16.944 16.944 0 00-2.47-.572c.084-.263.155-.524.244-.787 3.233-9.457 10.067-15.269 18.818-18.784.586-.234 1.144-.142 1.557.388.413.526.402 1.103.062 1.676a20.5 20.5 0 00-.286.496c-3.02 5.311-4.505 11.05-3.755 17.214 1.285 10.538 6.485 18.279 15.66 22.817 5.677 2.809 11.653 2.916 17.685 1.34.854-.225 1.452-.089 1.81.485.36.58.32 1.133-.27 1.877-1.333 1.684-2.612 3.43-4.072 4.984-6.123 6.517-13.511 9.448-22.24 8.492-.145-.026-.291-.049-.437-.074a12.706 12.706 0 002.056-2.564m-48.507-22.38c.887 0 1.771.1 2.636.299 2.763-6.799 9.213-11.332 16.192-11.332 8.709 0 15.95 6.515 17.392 15.562h.061c5.695 0 10.328 4.92 10.328 10.968S65.3 77.272 59.606 77.272H23.325c-6.868 0-12.455-5.936-12.455-13.232 0-7.296 5.587-13.232 12.455-13.232zm-9.95 13.232c0 5.834 4.463 10.581 9.95 10.581h36.281c4.314 0 7.823-3.73 7.823-8.316 0-4.587-3.51-8.317-7.823-8.317-.288 0-.601.024-.989.073l-1.273.169-.128-1.35c-.786-8.241-7.261-14.455-15.063-14.455-6.382 0-12.11 4.304-14.254 10.71l-.405 1.208-1.154-.388a9.425 9.425 0 00-3.015-.496c-5.487 0-9.95 4.745-9.95 10.581z"/></svg>