<svg width="100" height="100" xmlns="http://www.w3.org/2000/svg">
    <g fill="#FFF">
        <path d="M84.097 50.74c-1.095 0-2.19.12-3.259.355C77.42 43.023 69.442 37.64 60.81 37.64c-10.772 0-19.73 7.735-21.511 18.478h-.076c-7.043 0-12.774 5.844-12.774 13.024 0 7.18 5.73 13.021 12.774 13.021h44.874c8.495 0 15.406-7.048 15.406-15.711 0-8.664-6.91-15.712-15.406-15.712zm12.307 15.712c0 6.928-5.521 12.563-12.307 12.563H39.223c-5.335 0-9.675-4.428-9.675-9.873 0-5.445 4.34-9.877 9.675-9.877.356 0 .744.028 1.224.088l1.574.2.159-1.603c.972-9.785 8.982-17.163 18.63-17.163 7.893 0 14.979 5.11 17.629 12.716l.502 1.435 1.427-.461a12.165 12.165 0 0 1 3.73-.589c6.785 0 12.306 5.635 12.306 12.564zM21.277 35.268c.568.627 1.54.67 2.16.097.62-.575.664-1.557.096-2.183l-9.139-10.08a1.521 1.521 0 0 0-2.16-.095 1.56 1.56 0 0 0-.095 2.181l9.138 10.08m-.691 25.292l-9.766 9.462a1.559 1.559 0 0 0-.046 2.183 1.524 1.524 0 0 0 2.163.045l9.766-9.46a1.563 1.563 0 0 0 .045-2.185 1.523 1.523 0 0 0-2.162-.045m15.919-29.733c.84.053 1.57-.597 1.622-1.444l.85-13.641a1.543 1.543 0 0 0-1.43-1.639 1.539 1.539 0 0 0-1.621 1.445l-.85 13.64a1.543 1.543 0 0 0 1.429 1.639m-18.444 16.34a1.545 1.545 0 0 0-1.406-1.66L3.163 44.45a1.54 1.54 0 0 0-1.643 1.42 1.546 1.546 0 0 0 1.407 1.66l13.492 1.057a1.537 1.537 0 0 0 1.642-1.42m23.869-11.04c-1.725-.964-3.67-1.83-5.763-1.987-7.796-.587-14.61 5.343-15.19 13.217a14.366 14.366 0 0 0 5.742 12.578c.415-.742.972-1.553 1.717-2.352a11.432 11.432 0 0 1-4.571-10.01c.462-6.265 5.884-10.983 12.085-10.516 1.217.091.887-.224 1.956.221l.414.159s1.3-1.349 3.61-1.31 M91.677 46.175c0-6.937-5.533-12.58-12.335-12.58-.878 0-1.755.095-2.611.283-2.736-6.463-9.124-10.775-16.036-10.775-8.624 0-15.797 6.195-17.225 14.797h-.06c-5.64 0-10.228 4.678-10.228 10.428 0 1.717.42 3.329 1.145 4.755.579-.29 1.39-.58 2.437-.746a7.911 7.911 0 0 1-1.1-4.009c0-4.36 3.475-7.908 7.745-7.908.286 0 .598.023.98.072l1.261.158.127-1.283c.78-7.834 7.192-13.742 14.918-13.742 6.32 0 11.993 4.092 14.117 10.182l.4 1.15 1.144-.37a9.696 9.696 0 0 1 2.986-.472c5.434 0 9.854 4.513 9.854 10.06 0 .565-.054 1.117-.143 1.657a8.756 8.756 0 0 1 2.351.918c.172-.832.273-1.692.273-2.575"/>
    </g>
</svg>
