<svg xmlns="http://www.w3.org/2000/svg" viewBox="0 0 100 100"><path d="M68.26 56.928h22.414c3.758 0 6.814-3.348 6.814-7.465 0-4.118-3.056-7.468-6.814-7.468a6.32 6.32 0 00-.862.067l-1.109.151-.112-1.212c-.685-7.398-6.326-12.977-13.121-12.977-5.56 0-10.549 3.864-12.415 9.614l-.353 1.086-1.007-.35a8.04 8.04 0 00-2.625-.443c-.176 0-.347.016-.522.027a37.066 37.066 0 01-.192-2.369c.236-.016.473-.039.714-.039.77 0 1.542.09 2.295.268 2.408-6.102 8.026-10.173 14.105-10.173 7.586 0 13.895 5.849 15.151 13.971h.053c4.96 0 8.996 4.418 8.996 9.847 0 5.428-4.035 9.846-8.996 9.846h-18.94l.028-.007s-1.504-.714-3.503-2.373M65.99 79.073c2.504.113 5.065-.08 7.693-.672 5.087-1.145 9.191-4.22 12.738-8.234.523-.592 1.018-1.211 1.585-1.886-12.129 1.383-22.245-2.591-29.512-13.206-7.221-10.548-8.01-22.165-3.447-34.317-.064.013-.142.01-.205.044-7.044 3.823-12.284 9.448-14.856 17.577a17.636 17.636 0 00-2.638-.63c.09-.29.164-.576.261-.867C41.061 26.48 48.356 20.084 57.697 16.22c.626-.26 1.221-.157 1.662.425.44.58.429 1.212.067 1.845a19.13 19.13 0 00-.306.545c-3.223 5.844-4.81 12.158-4.008 18.94 1.371 11.593 6.923 20.11 16.715 25.102 6.06 3.09 12.44 3.207 18.88 1.472.911-.245 1.55-.097 1.93.536.386.637.343 1.245-.287 2.065-1.423 1.851-2.788 3.772-4.347 5.484-6.536 7.169-14.423 10.392-23.74 9.342-.155-.03-.311-.055-.468-.083a13.9 13.9 0 002.196-2.82M14.21 54.45c.946 0 1.892.11 2.814.328C19.974 47.3 26.86 42.31 34.31 42.31c9.297 0 17.027 7.168 18.567 17.124.021-.002.044-.002.065-.002 6.079 0 11.024 5.415 11.024 12.069 0 6.652-4.945 12.065-11.024 12.065H14.21c-7.332 0-13.297-6.532-13.297-14.56 0-8.025 5.965-14.557 13.297-14.557zM3.589 69.006c0 6.42 4.765 11.641 10.623 11.641h38.73c4.604 0 8.35-4.104 8.35-9.147 0-5.047-3.746-9.153-8.35-9.153a7.84 7.84 0 00-1.056.082l-1.36.184-.136-1.485c-.839-9.065-7.753-15.9-16.08-15.9-6.812 0-12.927 4.734-15.215 11.782l-.433 1.329-1.232-.43a9.831 9.831 0 00-3.218-.543c-5.858 0-10.623 5.221-10.623 11.64z"/></svg>