<svg width="100" height="100" xmlns="http://www.w3.org/2000/svg">
    <g fill="#FFF">
        <path d="M80.949 60.229h6.631c4.323 0 7.84-3.534 7.84-7.878 0-4.346-3.517-7.882-7.84-7.882-.288 0-.604.024-.992.07l-1.276.16-.127-1.278c-.789-7.808-7.279-13.695-15.099-13.695-3.395 0-6.6 1.159-9.188 3.145a22.164 22.164 0 0 0-1.76-1.786c3.072-2.439 6.92-3.87 10.948-3.87 8.73 0 15.988 6.171 17.432 14.744h.062c5.707 0 10.35 4.662 10.35 10.392 0 5.728-4.643 10.39-10.35 10.39h-6.69c.059-.52.1-1.048.1-1.585 0-.313-.02-.62-.041-.927 M19.069 41.984c1.113 0 2.224.12 3.31.356 3.472-8.073 11.574-13.457 20.341-13.457 10.94 0 20.038 7.736 21.848 18.48h.077c7.154 0 12.973 5.842 12.973 13.023 0 7.18-5.819 13.022-12.973 13.022H19.07c-8.628 0-15.648-7.048-15.648-15.711 0-8.664 7.02-15.713 15.648-15.713zm-12.5 15.713c0 6.928 5.607 12.564 12.5 12.564h45.576c5.419 0 9.828-4.429 9.828-9.875s-4.409-9.876-9.828-9.876c-.36 0-.756.028-1.243.088l-1.598.199-.161-1.603C60.655 39.41 52.52 32.03 42.72 32.03c-8.016 0-15.212 5.112-17.906 12.717l-.508 1.436-1.45-.462a12.505 12.505 0 0 0-3.787-.588c-6.893 0-12.5 5.636-12.5 12.564z"/>
    </g>
</svg>
