<svg width="100" height="100" xmlns="http://www.w3.org/2000/svg">
    <path d="M72.345 27.697c-1.185 0-2.367.125-3.523.376-3.694-8.59-12.314-14.321-21.642-14.321-11.638 0-21.318 8.233-23.245 19.67-.027-.002-.055-.002-.081-.002-7.61 0-13.803 6.22-13.803 13.864 0 7.643 6.192 13.86 13.803 13.86h48.49c9.18 0 16.648-7.503 16.648-16.724 0-9.222-7.469-16.723-16.647-16.723zM85.643 44.42c0 7.375-5.965 13.373-13.298 13.373H23.854c-5.765 0-10.456-4.714-10.456-10.509 0-5.798 4.691-10.514 10.456-10.514.384 0 .804.031 1.323.094l1.7.213.172-1.707c1.05-10.414 9.705-18.268 20.131-18.268 8.53 0 16.186 5.44 19.05 13.535l.542 1.528 1.543-.492a13.278 13.278 0 0 1 4.03-.626c7.333 0 13.298 5.999 13.298 13.373zM24.088 70.367l4.229 7.682c.981 1.782 3.723.192 2.74-1.593l-4.23-7.682c-.982-1.782-3.722-.19-2.74 1.593m15.716 0c1.41 2.561 2.822 5.122 4.23 7.682.982 1.782 3.724.192 2.74-1.593l-4.23-7.682c-.981-1.782-3.721-.19-2.74 1.593m16.52 0l4.23 7.682c.982 1.782 3.722.192 2.74-1.593l-4.23-7.682c-.981-1.782-3.723-.19-2.74 1.593m15.965 0l4.23 7.682c.982 1.782 3.722.192 2.74-1.593-1.41-2.56-2.821-5.121-4.23-7.682-.982-1.782-3.723-.19-2.74 1.593M37.003 79.44l4.23 7.683c.98 1.782 3.722.191 2.74-1.593l-4.231-7.683c-.98-1.781-3.722-.19-2.739 1.594m15.714-.005l4.23 7.682c.982 1.784 3.722.192 2.74-1.593l-4.23-7.682c-.982-1.782-3.723-.19-2.74 1.593m16.031-.633l4.229 7.682c.981 1.781 3.723.191 2.74-1.594l-4.23-7.682c-.982-1.781-3.722-.191-2.74 1.594" fill="#FFF"/>
</svg>
