<svg width="100" height="100" xmlns="http://www.w3.org/2000/svg">
    <g fill="#FFF">
        <path d="M20.789 42.044h-6.453c-4.205 0-7.628-3.504-7.628-7.81 0-4.308 3.423-7.812 7.628-7.812.281 0 .587.022.966.07l1.24.157.126-1.268c.766-7.74 7.08-13.575 14.69-13.575 3.303 0 6.42 1.148 8.937 3.117a21.662 21.662 0 0 1 1.715-1.77c-2.99-2.418-6.733-3.837-10.653-3.837-8.493 0-15.556 6.119-16.962 14.616h-.059c-5.552 0-10.071 4.622-10.071 10.301 0 5.68 4.519 10.3 10.071 10.3h6.51a14.06 14.06 0 0 1-.097-1.57c0-.31.02-.615.04-.92 M80.993 23.958c-1.082 0-2.163.118-3.22.352-3.379-8.002-11.261-13.34-19.791-13.34-10.644 0-19.494 7.669-21.257 18.319h-.074c-6.96 0-12.623 5.792-12.623 12.911S29.69 55.109 36.65 55.109h44.342c8.394 0 15.224-6.987 15.224-15.576 0-8.588-6.83-15.575-15.224-15.575zm12.162 15.575c0 6.869-5.454 12.456-12.162 12.456H36.651c-5.272 0-9.561-4.391-9.561-9.789 0-5.4 4.289-9.791 9.56-9.791.352 0 .737.028 1.21.087l1.556.198.155-1.589c.962-9.7 8.877-17.015 18.41-17.015 7.802 0 14.802 5.066 17.422 12.607l.495 1.423 1.412-.459a11.983 11.983 0 0 1 3.683-.582c6.708 0 12.162 5.587 12.162 12.454zM36.864 63.7c1.29 2.384 2.578 4.769 3.869 7.154.897 1.66 3.403.178 2.504-1.484l-3.868-7.155c-.897-1.658-3.403-.177-2.505 1.485m44.078 0l3.869 7.154c.897 1.66 3.404.178 2.506-1.484l-3.87-7.155c-.897-1.658-3.403-.177-2.505 1.485m-3.238 7.855l3.87 7.155c.896 1.66 3.402.177 2.504-1.484-1.29-2.385-2.579-4.77-3.87-7.154-.896-1.66-3.402-.179-2.504 1.483M14.935 54.182l3.87 7.156c.896 1.658 3.403.177 2.505-1.485L17.44 52.7c-.897-1.66-3.404-.178-2.506 1.483m11.813 8.45c1.29 2.385 2.578 4.77 3.869 7.154.897 1.66 3.403.179 2.504-1.483l-3.868-7.156c-.898-1.66-3.403-.176-2.505 1.485m-3.379 9.517l3.87 7.155c.896 1.659 3.403.177 2.504-1.484l-3.868-7.155c-.898-1.66-3.404-.178-2.506 1.483m13.496 1.641c1.29 2.384 2.578 4.77 3.869 7.155.897 1.66 3.403.178 2.504-1.485l-3.868-7.154c-.897-1.66-3.403-.177-2.505 1.484 M64.856 54.963l-.309.146h.378l-.069-.146m-13.998-.132l-.432.278h.607l-.175-.278m20.115 18.864H66.3c-.62 0-1.194.312-1.538.836a1.894 1.894 0 0 0-.168 1.76l4.387 10.632L51.117 67.73h4.472c.674 0 1.296-.373 1.62-.972.324-.6.302-1.33-.061-1.908l-4.417-7.035H49.98l4.747 7.562h-4.704c-.739 0-1.406.445-1.698 1.13a1.891 1.891 0 0 0 .352 2.028L69.073 90.45a1.82 1.82 0 0 0 1.338.596c.347 0 .697-.1 1.013-.309.761-.5 1.05-1.444.7-2.294L67.01 76.048h4.707c.636 0 1.22-.327 1.561-.871.34-.544.383-1.218.112-1.799l-7.213-15.564h-2.563l7.359 15.881"/>
    </g>
</svg>
