<svg width="100" height="100" xmlns="http://www.w3.org/2000/svg">
    <path fill="#FFF" d="M77.031 57.407l-.421-3.002-12.819 1.871-10.317-6.072 10.316-6.071 12.82 1.871.421-3-9.069-1.327L82 33.416l-1.487-2.627-14.04 8.264 3.411-8.672-2.761-1.127-4.82 12.252-10.077 5.93v-12l8-10.382-2.34-1.874-5.66 7.346V14H49.25v16.526l-5.66-7.346-2.337 1.874 8 10.382v12.282l-10.555-6.212-4.821-12.252-2.762 1.129 3.41 8.67-14.037-8.264L19 33.416l14.038 8.261-9.07 1.327.422 3 12.819-1.871 10.317 6.07-10.32 6.073-12.816-1.871-.423 3.002 9.071 1.324L19 66.993l1.487 2.626 14.04-8.263-3.413 8.672 2.762 1.127 4.82-12.253 10.555-6.21v12.233l-8 10.384 2.34 1.872 5.66-7.345v15.558h2.975V69.836l5.66 7.345 2.34-1.872-8-10.383V52.972l10.077 5.93 4.82 12.253 2.761-1.127-3.41-8.672 14.04 8.263L82 66.993l-14.038-8.262 9.07-1.324"/>
</svg>
