<svg width="100" height="100" xmlns="http://www.w3.org/2000/svg">
    <path d="M84.408 66.807H12.65c-1.033 0-1.878-.792-1.878-1.763 0-.968.845-1.76 1.878-1.76h71.758c1.032 0 1.877.792 1.877 1.76 0 .97-.845 1.763-1.877 1.763M67.695 78.192H12.65c-1.033 0-1.878-.792-1.878-1.763 0-.968.845-1.76 1.878-1.76h55.045c1.032 0 1.878.792 1.878 1.76 0 .97-.846 1.763-1.878 1.763M27.251 23.68c1.173 0 2.343.122 3.487.36 3.657-8.197 12.19-13.665 21.423-13.665 11.522 0 21.104 7.857 23.01 18.767h.083c7.532 0 13.663 5.933 13.663 13.226 0 7.294-6.13 13.225-13.663 13.225H27.25c-9.087 0-16.479-7.158-16.479-15.956 0-8.799 7.392-15.957 16.48-15.957zM14.087 39.637c0 7.036 5.904 12.76 13.164 12.76h48.003c5.706 0 10.348-4.499 10.348-10.029s-4.642-10.03-10.348-10.03c-.381 0-.798.029-1.311.09l-1.684.202-.169-1.628c-1.04-9.937-9.608-17.43-19.929-17.43-8.443 0-16.021 5.19-18.858 12.915l-.537 1.458-1.526-.47a13.624 13.624 0 0 0-3.989-.598c-7.26 0-13.164 5.723-13.164 12.76zm35.46 49.483H12.65c-1.033 0-1.878-.792-1.878-1.761 0-.97.845-1.762 1.878-1.762h36.897c1.034 0 1.88.793 1.88 1.762s-.846 1.761-1.88 1.761" fill="#FFF"/>
</svg>
