<svg width="1841" height="236" xmlns="http://www.w3.org/2000/svg">
    <g fill="none" fill-rule="evenodd">
        <path d="M1257.5 136.5h-97.039v99h97.039z" stroke="currentColor" opacity=".023"/>
        <g fill="#FFF">
            <path d="M1226.885 213.09a31.803 31.803 0 0 0 8.03-.663c5.307-1.128 9.59-4.16 13.292-8.114.546-.583 1.064-1.192 1.656-1.86-12.658 1.366-23.218-2.552-30.8-13.013-7.538-10.396-8.362-21.844-3.598-33.82-.068.013-.15.011-.215.043-7.35 3.77-12.82 9.312-15.504 17.323a19.317 19.317 0 0 0-2.753-.62c.093-.285.172-.569.272-.854 3.602-10.253 11.216-16.554 20.964-20.366.653-.254 1.275-.154 1.735.421.46.57.447 1.195.07 1.817-.11.178-.216.358-.32.537-3.363 5.76-5.019 11.981-4.182 18.665 1.43 11.425 7.224 19.818 17.444 24.739 6.325 3.045 12.983 3.162 19.703 1.452.952-.243 1.618-.095 2.016.526.402.628.357 1.23-.3 2.035-1.485 1.827-2.91 3.72-4.537 5.405-6.822 7.065-15.052 10.243-24.777 9.207-.161-.029-.324-.053-.487-.08a13.852 13.852 0 0 0 2.291-2.78"/>
            <path d="M1172.845 188.825c.988 0 1.973.108 2.936.324 3.08-7.372 10.265-12.287 18.04-12.287 9.702 0 17.77 7.064 19.377 16.873h.068c6.344 0 11.505 5.335 11.505 11.892 0 6.557-5.161 11.89-11.505 11.89h-40.421c-7.652 0-13.876-6.435-13.876-14.346 0-7.91 6.224-14.346 13.876-14.346zm-11.085 14.346c0 6.326 4.972 11.473 11.085 11.473h40.42c4.806 0 8.715-4.045 8.715-9.017 0-4.973-3.909-9.018-8.714-9.018-.321 0-.67.026-1.102.08l-1.419.182-.142-1.463c-.876-8.936-8.09-15.673-16.782-15.673-7.11 0-13.492 4.667-15.88 11.612l-.452 1.31-1.285-.42a10.763 10.763 0 0 0-3.359-.538c-6.113 0-11.085 5.145-11.085 11.472z"/>
        </g>
        <path d="M1112.5 136.5h-99v99h99z" stroke="currentColor" opacity=".023"/>
        <g fill="#FFF">
            <path d="M1093.949 196.229h6.631c4.323 0 7.84-3.534 7.84-7.878 0-4.346-3.517-7.882-7.84-7.882-.288 0-.604.024-.992.07l-1.276.16-.127-1.278c-.789-7.808-7.279-13.695-15.099-13.695-3.395 0-6.6 1.159-9.188 3.145a22.164 22.164 0 0 0-1.76-1.786c3.072-2.439 6.92-3.87 10.948-3.87 8.73 0 15.988 6.171 17.432 14.744h.062c5.707 0 10.35 4.662 10.35 10.392 0 5.728-4.643 10.39-10.35 10.39h-6.69c.059-.52.1-1.048.1-1.585 0-.313-.02-.62-.041-.927"/>
            <path d="M1032.069 177.984c1.113 0 2.224.12 3.31.356 3.472-8.073 11.574-13.457 20.341-13.457 10.94 0 20.038 7.736 21.848 18.48h.077c7.154 0 12.973 5.842 12.973 13.023 0 7.18-5.819 13.022-12.973 13.022h-45.576c-8.628 0-15.648-7.048-15.648-15.711 0-8.664 7.02-15.713 15.648-15.713zm-12.5 15.713c0 6.928 5.607 12.564 12.5 12.564h45.576c5.419 0 9.828-4.429 9.828-9.875s-4.409-9.876-9.828-9.876c-.36 0-.756.028-1.243.088l-1.598.199-.161-1.603c-.988-9.785-9.123-17.164-18.923-17.164-8.016 0-15.212 5.112-17.906 12.717l-.508 1.436-1.45-.462a12.505 12.505 0 0 0-3.787-.588c-6.893 0-12.5 5.636-12.5 12.564z"/>
        </g>
        <path stroke="currentColor" opacity=".023" d="M868.5 136.5h99v99h-99z"/>
        <g fill="#FFF">
            <path d="M888.789 178.044h-6.453c-4.205 0-7.628-3.504-7.628-7.81 0-4.308 3.423-7.812 7.628-7.812.281 0 .587.022.966.07l1.24.157.126-1.268c.766-7.74 7.08-13.575 14.69-13.575 3.303 0 6.42 1.148 8.937 3.117a21.662 21.662 0 0 1 1.715-1.77c-2.99-2.418-6.733-3.837-10.653-3.837-8.493 0-15.556 6.119-16.962 14.616h-.059c-5.552 0-10.071 4.622-10.071 10.301 0 5.68 4.519 10.3 10.071 10.3h6.51a14.06 14.06 0 0 1-.097-1.57c0-.31.02-.615.04-.92"/>
            <path d="M948.993 159.958c-1.082 0-2.163.118-3.22.352-3.379-8.002-11.261-13.34-19.791-13.34-10.644 0-19.494 7.669-21.257 18.319h-.074c-6.96 0-12.623 5.792-12.623 12.911s5.663 12.909 12.623 12.909h44.342c8.394 0 15.224-6.987 15.224-15.576 0-8.588-6.83-15.575-15.224-15.575zm12.162 15.575c0 6.869-5.454 12.456-12.162 12.456h-44.342c-5.272 0-9.561-4.391-9.561-9.789 0-5.4 4.289-9.791 9.56-9.791.352 0 .737.028 1.21.087l1.556.198.155-1.589c.962-9.7 8.877-17.015 18.41-17.015 7.802 0 14.802 5.066 17.422 12.607l.495 1.423 1.412-.459a11.983 11.983 0 0 1 3.683-.582c6.708 0 12.162 5.587 12.162 12.454zM904.864 199.7c1.29 2.384 2.578 4.769 3.869 7.154.897 1.66 3.403.178 2.504-1.484l-3.868-7.155c-.897-1.658-3.403-.177-2.505 1.485m44.078 0l3.869 7.154c.897 1.66 3.404.178 2.506-1.484l-3.87-7.155c-.897-1.658-3.403-.177-2.505 1.485m-3.238 7.855l3.87 7.155c.896 1.66 3.402.177 2.504-1.484-1.29-2.385-2.579-4.77-3.87-7.154-.896-1.66-3.402-.179-2.504 1.483m-62.769-17.373l3.87 7.156c.896 1.658 3.403.177 2.505-1.485l-3.869-7.154c-.897-1.66-3.404-.178-2.506 1.483m11.812 8.451c1.29 2.385 2.578 4.77 3.869 7.154.897 1.66 3.403.179 2.504-1.483l-3.868-7.156c-.898-1.66-3.403-.176-2.505 1.485m-3.379 9.517l3.87 7.155c.896 1.659 3.403.177 2.504-1.484l-3.868-7.155c-.898-1.66-3.404-.178-2.506 1.483m13.496 1.641c1.29 2.384 2.578 4.77 3.869 7.155.897 1.66 3.403.178 2.504-1.485l-3.868-7.154c-.897-1.66-3.403-.177-2.505 1.484"/>
            <path d="M932.856 190.963l-.309.146h.378l-.069-.146m-13.998-.132l-.432.278h.607l-.175-.278m20.115 18.864H934.3c-.62 0-1.194.312-1.538.836a1.894 1.894 0 0 0-.168 1.76l4.387 10.632-17.864-19.194h4.472c.674 0 1.296-.373 1.62-.972.324-.6.302-1.33-.061-1.908l-4.417-7.035h-2.751l4.747 7.562h-4.704c-.739 0-1.406.445-1.698 1.13a1.891 1.891 0 0 0 .352 2.028l20.396 21.915a1.82 1.82 0 0 0 1.338.596c.347 0 .697-.1 1.013-.309.761-.5 1.05-1.444.7-2.294l-5.114-12.394h4.707c.636 0 1.22-.327 1.561-.871.34-.544.383-1.218.112-1.799l-7.213-15.564h-2.563l7.359 15.881"/>
        </g>
        <path stroke="currentColor" opacity=".023" d="M822.5 136.5h-99v99h99z"/>
        <path d="M773.968 216.026c9.779 1.005 18.052-2.08 24.91-8.938 1.636-1.636 3.068-3.473 4.562-5.244.66-.784.705-1.365.3-1.977-.4-.603-1.07-.746-2.026-.51-6.757 1.66-13.45 1.548-19.808-1.408-10.275-4.777-16.1-12.924-17.538-24.012-.841-6.488.823-12.526 4.205-18.117.106-.174.211-.349.32-.521.382-.604.393-1.209-.068-1.764-.464-.556-1.087-.655-1.744-.407-9.8 3.698-17.457 9.816-21.078 19.766-4.542 12.479-2.024 23.725 7.337 33.295 4.596 4.7 10.274 7.648 16.71 9.143 1.29.3 2.611.467 3.918.694zm24.915-13.1c-.595.647-1.115 1.24-1.663 1.803-3.723 3.84-8.029 6.783-13.365 7.878-9.124 1.872-17.54.028-25.072-5.324-10.785-7.662-14.367-20.377-10.524-32.334 2.612-8.124 8.235-13.679 15.826-17.438.065-.031.148-.03.216-.042-4.79 11.624-3.96 22.735 3.617 32.825 7.624 10.155 18.239 13.956 30.965 12.631z" fill="#FFFFFE"/>
        <path stroke="currentColor" opacity=".023" d="M578.5 136.5h99v99h-99z"/>
        <path fill="#FFF" d="M655.031 193.407l-.421-3.002-12.819 1.871-10.317-6.072 10.316-6.071 12.82 1.871.421-3-9.069-1.327L660 169.416l-1.487-2.627-14.04 8.264 3.411-8.672-2.761-1.127-4.82 12.252-10.077 5.93v-12l8-10.382-2.34-1.874-5.66 7.346V150h-2.975v16.526l-5.662-7.346-2.337 1.874 8 10.382v12.282l-10.555-6.212-4.821-12.252-2.762 1.129 3.41 8.67-14.037-8.264-1.487 2.627 14.038 8.261-9.07 1.327.422 3 12.819-1.871 10.317 6.07-10.32 6.073-12.816-1.871-.423 3.002 9.071 1.324L597 202.993l1.487 2.626 14.04-8.263-3.413 8.672 2.762 1.127 4.82-12.253 10.555-6.21v12.233l-8 10.384 2.34 1.872 5.66-7.345v15.558h2.975v-15.558l5.66 7.345 2.34-1.872-8-10.383v-11.954l10.077 5.93 4.82 12.253 2.761-1.127-3.41-8.672 14.04 8.263 1.486-2.626-14.038-8.262 9.07-1.324"/>
        <path d="M431.5 136.5h99v99h-99z" stroke="currentColor" opacity=".023"/>
        <path d="M503.393 162.319c-1.173 0-2.344.127-3.488.379-3.66-8.604-12.198-14.343-21.437-14.343-11.53 0-21.117 8.245-23.026 19.697l-.081-.001c-7.54 0-13.672 6.227-13.672 13.882 0 7.654 6.133 13.88 13.672 13.88h48.032c9.092 0 16.49-7.514 16.49-16.748 0-9.233-7.398-16.746-16.49-16.746zm13.174 16.746c0 7.385-5.91 13.392-13.174 13.392H455.36c-5.71 0-10.355-4.72-10.355-10.524 0-5.805 4.644-10.528 10.355-10.528.38 0 .797.03 1.31.095l1.686.212.169-1.708c1.041-10.43 9.613-18.295 19.942-18.295 8.448 0 16.032 5.447 18.87 13.555l.536 1.53 1.527-.493a13.07 13.07 0 0 1 3.992-.626c7.264 0 13.174 6.007 13.174 13.39zm-29.398 26.347a3.153 3.153 0 0 1-3.144 3.161 3.153 3.153 0 0 1-3.143-3.161 3.153 3.153 0 0 1 3.143-3.162 3.153 3.153 0 0 1 3.144 3.162m6.285 15.172a3.151 3.151 0 0 1-3.142 3.162 3.151 3.151 0 0 1-3.143-3.162 3.151 3.151 0 0 1 3.143-3.16 3.15 3.15 0 0 1 3.142 3.16m15.447-15.172a3.152 3.152 0 0 1-3.143 3.161 3.152 3.152 0 0 1-3.142-3.161 3.152 3.152 0 0 1 3.142-3.162 3.152 3.152 0 0 1 3.143 3.162m5.029 15.172a3.151 3.151 0 0 1-3.144 3.162 3.151 3.151 0 0 1-3.142-3.162 3.15 3.15 0 0 1 3.142-3.16 3.151 3.151 0 0 1 3.143 3.16m-46.477-13.801a3.153 3.153 0 0 1-3.143 3.161 3.153 3.153 0 0 1-3.143-3.161 3.153 3.153 0 0 1 3.143-3.162 3.153 3.153 0 0 1 3.143 3.162m6.285 15.172a3.152 3.152 0 0 1-3.143 3.161 3.152 3.152 0 0 1-3.142-3.161 3.15 3.15 0 0 1 3.142-3.16 3.151 3.151 0 0 1 3.143 3.16" fill="#FFF"/>
        <path d="M287.5 136.5h99v99h-99z" stroke="currentColor" opacity=".023"/>
        <path d="M359.345 163.697c-1.185 0-2.367.125-3.523.376-3.694-8.59-12.314-14.321-21.642-14.321-11.638 0-21.318 8.233-23.245 19.67-.027-.002-.055-.002-.081-.002-7.61 0-13.803 6.22-13.803 13.864 0 7.643 6.192 13.86 13.803 13.86h48.49c9.18 0 16.648-7.503 16.648-16.724 0-9.222-7.469-16.723-16.647-16.723zm13.298 16.723c0 7.375-5.965 13.373-13.298 13.373h-48.491c-5.765 0-10.456-4.714-10.456-10.509 0-5.798 4.691-10.514 10.456-10.514.384 0 .804.031 1.323.094l1.7.213.172-1.707c1.05-10.414 9.705-18.268 20.131-18.268 8.53 0 16.186 5.44 19.05 13.535l.542 1.528 1.543-.492a13.278 13.278 0 0 1 4.03-.626c7.333 0 13.298 5.999 13.298 13.373zm-61.555 25.947l4.229 7.682c.981 1.782 3.723.192 2.74-1.593l-4.23-7.682c-.982-1.782-3.722-.19-2.74 1.593m15.716 0c1.41 2.561 2.822 5.122 4.23 7.682.982 1.782 3.724.192 2.74-1.593l-4.23-7.682c-.981-1.782-3.721-.19-2.74 1.593m16.52 0l4.23 7.682c.982 1.782 3.722.192 2.74-1.593l-4.23-7.682c-.981-1.782-3.723-.19-2.74 1.593m15.965 0l4.23 7.682c.982 1.782 3.722.192 2.74-1.593-1.41-2.56-2.821-5.121-4.23-7.682-.982-1.782-3.723-.19-2.74 1.593m-35.285 9.073l4.23 7.683c.98 1.782 3.722.191 2.74-1.593l-4.231-7.683c-.98-1.781-3.722-.19-2.739 1.594m15.714-.005l4.23 7.682c.982 1.784 3.722.192 2.74-1.593l-4.23-7.682c-.982-1.782-3.723-.19-2.74 1.593m16.031-.633l4.229 7.682c.981 1.781 3.723.191 2.74-1.594l-4.23-7.682c-.982-1.781-3.722-.191-2.74 1.594" fill="#FFF"/>
        <path d="M146.5 136.5h99v99h-99z" stroke="currentColor" opacity=".023"/>
        <path d="M215.053 162.737a15.66 15.66 0 0 0-3.357.364c-3.523-8.276-11.74-13.798-20.633-13.798-11.098 0-20.326 7.932-22.162 18.95-.027-.002-.052-.002-.079-.002-7.256 0-13.158 5.992-13.158 13.355 0 7.364 5.902 13.354 13.158 13.354h46.231c8.751 0 15.872-7.229 15.872-16.112s-7.12-16.111-15.872-16.111zm12.68 16.11c0 7.105-5.688 12.884-12.68 12.884h-46.23c-5.497 0-9.967-4.542-9.967-10.125 0-5.585 4.47-10.128 9.966-10.128.367 0 .767.03 1.262.092l1.622.204.163-1.644c1.002-10.033 9.252-17.6 19.194-17.6 8.13 0 15.43 5.24 18.162 13.04l.516 1.472 1.47-.474c1.25-.4 2.541-.602 3.842-.602 6.992 0 12.68 5.778 12.68 12.882zm-28.296 25.347a3.034 3.034 0 0 1-3.025 3.041 3.034 3.034 0 0 1-3.025-3.041 3.034 3.034 0 0 1 3.025-3.042 3.034 3.034 0 0 1 3.025 3.042m6.05 14.596a3.032 3.032 0 0 1-3.024 3.041 3.033 3.033 0 0 1-3.026-3.041 3.032 3.032 0 0 1 3.026-3.04 3.032 3.032 0 0 1 3.024 3.04m14.868-14.596a3.033 3.033 0 0 1-3.026 3.041 3.033 3.033 0 0 1-3.024-3.041 3.033 3.033 0 0 1 3.024-3.042 3.033 3.033 0 0 1 3.026 3.042m4.84 14.596a3.033 3.033 0 0 1-3.026 3.041 3.032 3.032 0 0 1-3.024-3.041 3.032 3.032 0 0 1 3.024-3.04 3.032 3.032 0 0 1 3.026 3.04m-44.735-13.278a3.034 3.034 0 0 1-3.025 3.042 3.034 3.034 0 0 1-3.025-3.042 3.034 3.034 0 0 1 3.025-3.041 3.034 3.034 0 0 1 3.025 3.041m6.05 14.597a3.033 3.033 0 0 1-3.026 3.04 3.033 3.033 0 0 1-3.024-3.04 3.032 3.032 0 0 1 3.024-3.04 3.032 3.032 0 0 1 3.026 3.04" fill="#FFF"/>
        <path d="M99.5 136.5H1.271v99H99.5z" stroke="currentColor" opacity=".023"/>
        <g fill="#FFF">
            <path d="M71.831 209.188a27.804 27.804 0 0 0 7.208-.61c4.763-1.042 8.608-3.837 11.93-7.485.49-.538.956-1.1 1.487-1.714-11.362 1.258-20.84-2.355-27.646-12.003-6.766-9.588-7.506-20.147-3.23-31.193-.06.012-.134.01-.192.04C54.79 159.7 49.88 164.811 47.47 172.2a16.944 16.944 0 0 0-2.471-.572c.084-.263.155-.524.244-.787 3.233-9.457 10.067-15.269 18.818-18.784.586-.234 1.144-.142 1.557.388.413.526.402 1.103.062 1.676a20.5 20.5 0 0 0-.286.496c-3.02 5.311-4.505 11.05-3.755 17.214 1.285 10.538 6.485 18.279 15.659 22.817 5.677 2.809 11.653 2.916 17.685 1.34.854-.225 1.452-.089 1.81.485.36.58.32 1.133-.27 1.877-1.333 1.684-2.612 3.43-4.072 4.984-6.123 6.517-13.511 9.448-22.24 8.492-.145-.026-.291-.049-.437-.074a12.706 12.706 0 0 0 2.056-2.564"/>
            <path d="M23.325 186.808c.887 0 1.771.1 2.636.299 2.763-6.799 9.213-11.332 16.192-11.332 8.709 0 15.95 6.515 17.392 15.562h.061c5.695 0 10.328 4.92 10.328 10.968s-4.633 10.967-10.328 10.967H23.325c-6.868 0-12.455-5.936-12.455-13.232 0-7.296 5.587-13.232 12.455-13.232zm-9.95 13.232c0 5.834 4.463 10.581 9.95 10.581h36.281c4.314 0 7.823-3.73 7.823-8.316 0-4.587-3.51-8.317-7.823-8.317-.288 0-.601.024-.989.073l-1.273.169-.128-1.35c-.786-8.241-7.261-14.455-15.063-14.455-6.382 0-12.11 4.304-14.254 10.71l-.405 1.208-1.154-.388a9.425 9.425 0 0 0-3.015-.496c-5.487 0-9.95 4.745-9.95 10.581z"/>
        </g>
        <path d="M1840.5.5h-97.039v99h97.039z" stroke="currentColor" opacity=".023"/>
        <g fill="#FFF">
            <path d="M1809.885 77.09a31.803 31.803 0 0 0 8.03-.663c5.307-1.128 9.59-4.16 13.292-8.114.546-.583 1.064-1.192 1.656-1.86-12.658 1.366-23.218-2.552-30.8-13.013-7.538-10.396-8.362-21.844-3.598-33.82-.068.013-.15.011-.215.043-7.35 3.77-12.82 9.312-15.504 17.323a19.317 19.317 0 0 0-2.753-.62c.093-.285.172-.569.272-.854 3.602-10.253 11.216-16.554 20.964-20.366.653-.254 1.275-.154 1.735.421.46.57.447 1.195.07 1.817-.11.178-.216.358-.32.537-3.363 5.76-5.019 11.981-4.182 18.665 1.43 11.425 7.224 19.818 17.444 24.739 6.325 3.045 12.983 3.162 19.703 1.452.952-.243 1.618-.095 2.016.526.402.628.357 1.23-.3 2.035-1.485 1.827-2.91 3.72-4.537 5.405-6.822 7.065-15.052 10.243-24.777 9.207-.161-.029-.324-.053-.487-.08a13.852 13.852 0 0 0 2.291-2.78"/>
            <path d="M1755.845 52.825c.988 0 1.973.108 2.936.324 3.08-7.372 10.265-12.287 18.04-12.287 9.702 0 17.77 7.064 19.377 16.873h.068c6.344 0 11.505 5.335 11.505 11.892 0 6.557-5.161 11.89-11.505 11.89h-40.421c-7.652 0-13.876-6.435-13.876-14.346 0-7.91 6.224-14.346 13.876-14.346zM1744.76 67.17c0 6.326 4.972 11.473 11.085 11.473h40.42c4.806 0 8.715-4.045 8.715-9.017 0-4.973-3.909-9.018-8.714-9.018-.321 0-.67.026-1.102.08l-1.419.182-.142-1.463c-.876-8.936-8.09-15.673-16.782-15.673-7.11 0-13.492 4.667-15.88 11.612l-.452 1.31-1.285-.42a10.763 10.763 0 0 0-3.359-.538c-6.113 0-11.085 5.145-11.085 11.472z"/>
        </g>
        <path d="M1694.5.5h-97.039v99h97.039z" stroke="currentColor" opacity=".023"/>
        <g fill="#FFF">
            <path d="M1663.885 77.09a31.803 31.803 0 0 0 8.03-.663c5.307-1.128 9.59-4.16 13.292-8.114.546-.583 1.064-1.192 1.656-1.86-12.658 1.366-23.218-2.552-30.8-13.013-7.538-10.396-8.362-21.844-3.598-33.82-.068.013-.15.011-.215.043-7.35 3.77-12.82 9.312-15.504 17.323a19.317 19.317 0 0 0-2.753-.62c.093-.285.172-.569.272-.854 3.602-10.253 11.216-16.554 20.964-20.366.653-.254 1.275-.154 1.735.421.46.57.447 1.195.07 1.817-.11.178-.216.358-.32.537-3.363 5.76-5.019 11.981-4.182 18.665 1.43 11.425 7.224 19.818 17.444 24.739 6.325 3.045 12.983 3.162 19.703 1.452.952-.243 1.618-.095 2.016.526.402.628.357 1.23-.3 2.035-1.485 1.827-2.91 3.72-4.537 5.405-6.822 7.065-15.052 10.243-24.777 9.207-.161-.029-.324-.053-.487-.08a13.852 13.852 0 0 0 2.291-2.78"/>
            <path d="M1609.845 52.825c.988 0 1.973.108 2.936.324 3.08-7.372 10.265-12.287 18.04-12.287 9.702 0 17.77 7.064 19.377 16.873h.068c6.344 0 11.505 5.335 11.505 11.892 0 6.557-5.161 11.89-11.505 11.89h-40.421c-7.652 0-13.876-6.435-13.876-14.346 0-7.91 6.224-14.346 13.876-14.346zM1598.76 67.17c0 6.326 4.972 11.473 11.085 11.473h40.42c4.806 0 8.715-4.045 8.715-9.017 0-4.973-3.909-9.018-8.714-9.018-.321 0-.67.026-1.102.08l-1.419.182-.142-1.463c-.876-8.936-8.09-15.673-16.782-15.673-7.11 0-13.492 4.667-15.88 11.612l-.452 1.31-1.285-.42a10.763 10.763 0 0 0-3.359-.538c-6.113 0-11.085 5.145-11.085 11.472z"/>
        </g>
        <path stroke="currentColor" opacity=".023" d="M1548.5.5h-99v99h99z"/>
        <g fill="#FFF">
            <path d="M1517.26 56.928h22.414c3.758 0 6.814-3.348 6.814-7.465 0-4.118-3.056-7.468-6.814-7.468a6.32 6.32 0 0 0-.862.067l-1.109.151-.112-1.212c-.685-7.398-6.326-12.977-13.121-12.977-5.56 0-10.549 3.864-12.415 9.614l-.353 1.086-1.007-.35a8.04 8.04 0 0 0-2.625-.443c-.176 0-.347.016-.522.027a37.066 37.066 0 0 1-.192-2.369c.236-.016.473-.039.714-.039.77 0 1.542.09 2.295.268 2.408-6.102 8.026-10.173 14.105-10.173 7.586 0 13.895 5.849 15.151 13.971h.053c4.96 0 8.996 4.418 8.996 9.847 0 5.428-4.035 9.846-8.996 9.846h-18.94l.028-.007s-1.504-.714-3.503-2.373"/>
            <path d="M1514.99 79.073c2.504.113 5.065-.08 7.693-.672 5.087-1.145 9.191-4.22 12.738-8.234.523-.592 1.018-1.211 1.585-1.886-12.129 1.383-22.245-2.591-29.512-13.206-7.221-10.548-8.01-22.165-3.447-34.317-.064.013-.142.01-.205.044-7.044 3.823-12.284 9.448-14.856 17.577a17.636 17.636 0 0 0-2.638-.63c.09-.29.164-.576.261-.867 3.452-10.402 10.747-16.798 20.088-20.663.626-.26 1.221-.157 1.662.425.44.58.429 1.212.067 1.845a19.13 19.13 0 0 0-.306.545c-3.223 5.844-4.81 12.158-4.008 18.94 1.371 11.593 6.923 20.11 16.715 25.102 6.06 3.09 12.44 3.207 18.88 1.472.911-.245 1.55-.097 1.93.536.386.637.343 1.245-.287 2.065-1.423 1.851-2.788 3.772-4.347 5.484-6.536 7.169-14.423 10.392-23.74 9.342-.155-.03-.311-.055-.468-.083a13.9 13.9 0 0 0 2.196-2.82"/>
            <path d="M1463.21 54.45c.946 0 1.892.11 2.814.328 2.95-7.478 9.835-12.468 17.285-12.468 9.297 0 17.027 7.168 18.567 17.124.021-.002.044-.002.065-.002 6.079 0 11.024 5.415 11.024 12.069 0 6.652-4.945 12.065-11.024 12.065h-38.73c-7.332 0-13.297-6.532-13.297-14.56 0-8.025 5.965-14.557 13.297-14.557zm-10.622 14.557c0 6.42 4.765 11.641 10.623 11.641h38.73c4.604 0 8.35-4.104 8.35-9.147 0-5.047-3.746-9.153-8.35-9.153a7.84 7.84 0 0 0-1.056.082l-1.36.184-.136-1.485c-.839-9.065-7.753-15.9-16.08-15.9-6.812 0-12.927 4.734-15.215 11.782l-.433 1.329-1.232-.43a9.831 9.831 0 0 0-3.218-.543c-5.858 0-10.623 5.221-10.623 11.64z"/>
        </g>
        <path d="M1403.5.5h-99v99h99z" stroke="currentColor" opacity=".023"/>
        <path d="M1388.408 66.807h-71.758c-1.033 0-1.878-.792-1.878-1.763 0-.968.845-1.76 1.878-1.76h71.758c1.032 0 1.877.792 1.877 1.76 0 .97-.845 1.763-1.877 1.763m-16.713 11.385h-55.045c-1.033 0-1.878-.792-1.878-1.763 0-.968.845-1.76 1.878-1.76h55.045c1.032 0 1.878.792 1.878 1.76 0 .97-.846 1.763-1.878 1.763m-40.444-54.512c1.173 0 2.343.122 3.487.36 3.657-8.197 12.19-13.665 21.423-13.665 11.522 0 21.104 7.857 23.01 18.767h.083c7.532 0 13.663 5.933 13.663 13.226 0 7.294-6.13 13.225-13.663 13.225h-48.003c-9.087 0-16.479-7.158-16.479-15.956 0-8.799 7.392-15.957 16.48-15.957zm-13.164 15.957c0 7.036 5.904 12.76 13.164 12.76h48.003c5.706 0 10.348-4.499 10.348-10.029s-4.642-10.03-10.348-10.03c-.381 0-.798.029-1.311.09l-1.684.202-.169-1.628c-1.04-9.937-9.608-17.43-19.929-17.43-8.443 0-16.021 5.19-18.858 12.915l-.537 1.458-1.526-.47a13.624 13.624 0 0 0-3.989-.598c-7.26 0-13.164 5.723-13.164 12.76zm35.46 49.483h-36.897c-1.033 0-1.878-.792-1.878-1.761 0-.97.845-1.762 1.878-1.762h36.897c1.034 0 1.88.793 1.88 1.762s-.846 1.761-1.88 1.761" fill="#FFF"/>
        <path d="M1257.5.5h-99v99h99z" stroke="currentColor" opacity=".023"/>
        <path d="M1242.408 66.807h-71.758c-1.033 0-1.878-.792-1.878-1.763 0-.968.845-1.76 1.878-1.76h71.758c1.032 0 1.877.792 1.877 1.76 0 .97-.845 1.763-1.877 1.763m-16.713 11.385h-55.045c-1.033 0-1.878-.792-1.878-1.763 0-.968.845-1.76 1.878-1.76h55.045c1.032 0 1.878.792 1.878 1.76 0 .97-.846 1.763-1.878 1.763m-40.444-54.512c1.173 0 2.343.122 3.487.36 3.657-8.197 12.19-13.665 21.423-13.665 11.522 0 21.104 7.857 23.01 18.767h.083c7.532 0 13.663 5.933 13.663 13.226 0 7.294-6.13 13.225-13.663 13.225h-48.003c-9.087 0-16.479-7.158-16.479-15.956 0-8.799 7.392-15.957 16.48-15.957zm-13.164 15.957c0 7.036 5.904 12.76 13.164 12.76h48.003c5.706 0 10.348-4.499 10.348-10.029s-4.642-10.03-10.348-10.03c-.381 0-.798.029-1.311.09l-1.684.202-.169-1.628c-1.04-9.937-9.608-17.43-19.929-17.43-8.443 0-16.021 5.19-18.858 12.915l-.537 1.458-1.526-.47a13.624 13.624 0 0 0-3.989-.598c-7.26 0-13.164 5.723-13.164 12.76zm35.46 49.483h-36.897c-1.033 0-1.878-.792-1.878-1.761 0-.97.845-1.762 1.878-1.762h36.897c1.034 0 1.88.793 1.88 1.762s-.846 1.761-1.88 1.761" fill="#FFF"/>
        <path stroke="currentColor" opacity=".023" d="M1013.5.5h99v99h-99z"/>
        <path fill="#FFF" d="M1090.031 57.407l-.421-3.002-12.819 1.871-10.317-6.072 10.316-6.071 12.82 1.871.421-3-9.069-1.327L1095 33.416l-1.487-2.627-14.04 8.264 3.411-8.672-2.761-1.127-4.82 12.252-10.077 5.93v-12l8-10.382-2.34-1.874-5.66 7.346V14h-2.975v16.526l-5.662-7.346-2.337 1.874 8 10.382v12.282l-10.555-6.212-4.821-12.252-2.762 1.129 3.41 8.67-14.037-8.264-1.487 2.627 14.038 8.261-9.07 1.327.422 3 12.819-1.871 10.317 6.07-10.32 6.073-12.816-1.871-.423 3.002 9.071 1.324L1032 66.993l1.487 2.626 14.04-8.263-3.413 8.672 2.762 1.127 4.82-12.253 10.555-6.21v12.233l-8 10.384 2.34 1.872 5.66-7.345v15.558h2.975V69.836l5.66 7.345 2.34-1.872-8-10.383V52.972l10.077 5.93 4.82 12.253 2.761-1.127-3.41-8.672 14.04 8.263 1.486-2.626-14.038-8.262 9.07-1.324"/>
        <path d="M967.5.5h-99v99h99z" stroke="currentColor" opacity=".023"/>
        <g fill="#FFF">
            <path d="M948.949 60.229h6.631c4.323 0 7.84-3.534 7.84-7.878 0-4.346-3.517-7.882-7.84-7.882-.288 0-.604.024-.992.07l-1.276.16-.127-1.278c-.789-7.808-7.279-13.695-15.099-13.695-3.395 0-6.6 1.159-9.188 3.145a22.164 22.164 0 0 0-1.76-1.786c3.072-2.439 6.92-3.87 10.948-3.87 8.73 0 15.988 6.171 17.432 14.744h.062c5.707 0 10.35 4.662 10.35 10.392 0 5.728-4.643 10.39-10.35 10.39h-6.69c.059-.52.1-1.048.1-1.585 0-.313-.02-.62-.041-.927"/>
            <path d="M887.069 41.984c1.113 0 2.224.12 3.31.356 3.472-8.073 11.574-13.457 20.341-13.457 10.94 0 20.038 7.736 21.848 18.48h.077c7.154 0 12.973 5.842 12.973 13.023 0 7.18-5.819 13.022-12.973 13.022H887.07c-8.628 0-15.648-7.048-15.648-15.711 0-8.664 7.02-15.713 15.648-15.713zm-12.5 15.713c0 6.928 5.607 12.564 12.5 12.564h45.576c5.419 0 9.828-4.429 9.828-9.875s-4.409-9.876-9.828-9.876c-.36 0-.756.028-1.243.088l-1.598.199-.161-1.603c-.988-9.785-9.123-17.164-18.923-17.164-8.016 0-15.212 5.112-17.906 12.717l-.508 1.436-1.45-.462a12.505 12.505 0 0 0-3.787-.588c-6.893 0-12.5 5.636-12.5 12.564z"/>
        </g>
        <path stroke="currentColor" opacity=".023" d="M822.5.5h-99v99h99z"/>
        <path d="M773.968 80.026c9.779 1.005 18.052-2.08 24.91-8.938 1.636-1.636 3.068-3.473 4.562-5.244.66-.784.705-1.365.3-1.977-.4-.603-1.07-.746-2.026-.51-6.757 1.66-13.45 1.548-19.808-1.408-10.275-4.777-16.1-12.924-17.538-24.012-.841-6.488.823-12.526 4.205-18.117.106-.174.211-.349.32-.521.382-.604.393-1.209-.068-1.764-.464-.556-1.087-.655-1.744-.407-9.8 3.698-17.457 9.816-21.078 19.766-4.542 12.479-2.024 23.725 7.337 33.295 4.596 4.7 10.274 7.648 16.71 9.143 1.29.3 2.611.467 3.918.694zm24.915-13.1c-.595.647-1.115 1.24-1.663 1.803-3.723 3.84-8.029 6.783-13.365 7.878-9.124 1.872-17.54.028-25.072-5.324-10.785-7.662-14.367-20.377-10.524-32.334 2.612-8.124 8.235-13.679 15.826-17.438.065-.031.148-.03.216-.042-4.79 11.624-3.96 22.735 3.617 32.825 7.624 10.155 18.239 13.956 30.965 12.631z" fill="#FFFFFE"/>
        <g>
            <path stroke="currentColor" opacity=".023" d="M677.5.5h-99v99h99z"/>
            <g fill="#FFF">
                <path d="M605.964 22.266c1.135 0 2.268.12 3.375.361 3.541-8.233 11.803-13.725 20.743-13.725 11.155 0 20.432 7.891 22.279 18.85h.079c7.293 0 13.228 5.959 13.228 13.284 0 7.323-5.935 13.282-13.228 13.282h-46.476c-8.797 0-15.956-7.19-15.956-16.026 0-8.837 7.159-16.026 15.956-16.026zm-12.747 16.026c0 7.067 5.719 12.815 12.747 12.815h46.476c5.524 0 10.019-4.517 10.019-10.071 0-5.555-4.495-10.075-10.02-10.075-.368 0-.772.028-1.267.09l-1.632.203-.163-1.635c-1.008-9.98-9.303-17.506-19.295-17.506-8.175 0-15.513 5.212-18.259 12.971l-.52 1.465-1.478-.472a12.724 12.724 0 0 0-3.86-.6c-7.03 0-12.748 5.748-12.748 12.815zm58.997 24.864l-4.053 7.362c-.941 1.708-3.568.184-2.626-1.527l4.055-7.361c.94-1.708 3.567-.184 2.624 1.526m-46.196 0l-4.055 7.362c-.94 1.708-3.566.184-2.625-1.527 1.351-2.454 2.702-4.907 4.055-7.361.94-1.708 3.566-.184 2.625 1.526m3.394 8.084l-4.054 7.36c-.942 1.709-3.568.184-2.627-1.525l4.055-7.362c.94-1.708 3.568-.183 2.626 1.526m53.408-9.179c-1.353 2.452-2.704 4.907-4.055 7.36-.942 1.709-3.568.184-2.627-1.527l4.055-7.36c.94-1.709 3.568-.184 2.626 1.527m-10.605 11.48l-4.053 7.36c-.941 1.709-3.568.184-2.626-1.527l4.055-7.36c.94-1.709 3.567-.184 2.624 1.527"/>
                <path d="M622.877 54.166l.324.152h-.396l.072-.152m14.671-.134l.453.286h-.636l.183-.286m-21.08 19.41h4.896c.649 0 1.251.32 1.612.858.36.537.426 1.215.175 1.813l-4.596 10.938 18.721-19.748h-4.686a1.94 1.94 0 0 1-1.698-1 1.918 1.918 0 0 1 .064-1.963l4.63-7.24h2.882l-4.975 7.782h4.93c.776 0 1.474.456 1.78 1.163a1.92 1.92 0 0 1-.37 2.086L618.458 90.68a1.923 1.923 0 0 1-1.402.613c-.365 0-.732-.105-1.061-.318a1.897 1.897 0 0 1-.735-2.36l5.36-12.754h-4.933c-.668 0-1.28-.335-1.637-.895a1.911 1.911 0 0 1-.117-1.85l7.56-16.015h2.687l-7.712 16.34"/>
            </g>
        </g>
        <g>
            <path stroke="currentColor" opacity=".023" d="M431.5.5h99v99h-99z"/>
            <path fill="#FFF" d="M508.031 57.407l-.421-3.002-12.819 1.871-10.317-6.072 10.316-6.071 12.82 1.871.421-3-9.069-1.327L513 33.416l-1.487-2.627-14.04 8.264 3.411-8.672-2.761-1.127-4.82 12.252-10.077 5.93v-12l8-10.382-2.34-1.874-5.66 7.346V14h-2.975v16.526l-5.662-7.346-2.337 1.874 8 10.382v12.282l-10.555-6.212-4.821-12.252-2.762 1.129 3.41 8.67-14.037-8.264L450 33.416l14.038 8.261-9.07 1.327.422 3 12.819-1.871 10.317 6.07-10.32 6.073-12.816-1.871-.423 3.002 9.071 1.324L450 66.993l1.487 2.626 14.04-8.263-3.413 8.672 2.762 1.127 4.82-12.253 10.555-6.21v12.233l-8 10.384 2.34 1.872 5.66-7.345v15.558h2.975V69.836l5.66 7.345 2.34-1.872-8-10.383V52.972l10.077 5.93 4.82 12.253 2.761-1.127-3.41-8.672 14.04 8.263L513 66.993l-14.038-8.262 9.07-1.324"/>
        </g>
        <g>
            <path stroke="currentColor" opacity=".023" d="M287.5.5h99v99h-99z"/>
            <path d="M358.987 33.996c-1.144 0-2.286.123-3.402.367-3.566-8.342-11.893-13.908-20.9-13.908-11.241 0-20.589 7.996-22.45 19.1l-.079-.001c-7.35 0-13.33 6.04-13.33 13.463 0 7.42 5.98 13.458 13.33 13.458h46.831c8.866 0 16.078-7.286 16.078-16.239 0-8.954-7.212-16.24-16.078-16.24zm12.845 16.24c0 7.16-5.762 12.985-12.845 12.985h-46.83c-5.568 0-10.098-4.578-10.098-10.204 0-5.63 4.53-10.209 10.097-10.209.372 0 .777.029 1.278.091l1.642.206.166-1.657c1.014-10.113 9.373-17.738 19.444-17.738 8.236 0 15.63 5.281 18.398 13.142l.521 1.483 1.491-.478a12.807 12.807 0 0 1 3.891-.607c7.083 0 12.845 5.825 12.845 12.986zM344.18 76.799a3.064 3.064 0 1 1-3.063-3.064 3.064 3.064 0 0 1 3.064 3.064m20.177-1.017a3.065 3.065 0 1 1-6.13.001 3.065 3.065 0 0 1 6.13 0m-40.414 1.329a3.064 3.064 0 1 1-6.128 0 3.064 3.064 0 1 1 6.128 0" fill="#FFF"/>
        </g>
        <g>
            <path stroke="currentColor" opacity=".023" d="M146.5.5h99v99h-99z"/>
            <path d="M216.978 30.542c-1.114 0-2.226.12-3.314.356-3.476-8.102-11.588-13.507-20.365-13.507-10.952 0-20.06 7.765-21.874 18.55h-.076c-7.162 0-12.99 5.865-12.99 13.073 0 7.209 5.828 13.072 12.99 13.072h45.629c8.638 0 15.665-7.076 15.665-15.772 0-8.697-7.027-15.772-15.665-15.772zm12.515 15.772c0 6.955-5.613 12.612-12.515 12.612h-45.63c-5.424 0-9.838-4.446-9.838-9.912 0-5.467 4.414-9.914 9.839-9.914.362 0 .757.028 1.243.088l1.602.2.16-1.608c.99-9.823 9.134-17.23 18.945-17.23 8.027 0 15.23 5.13 17.926 12.766l.51 1.44 1.452-.464a12.514 12.514 0 0 1 3.79-.59c6.903 0 12.516 5.658 12.516 12.612zm-57.924 24.47c1.326 2.416 2.653 4.83 3.98 7.245.924 1.68 3.502.18 2.578-1.502l-3.981-7.246c-.923-1.68-3.502-.18-2.577 1.503m14.789 0l3.98 7.245c.924 1.68 3.503.18 2.578-1.502l-3.98-7.246c-.924-1.68-3.504-.18-2.578 1.503m15.544 0l3.981 7.245c.923 1.68 3.503.18 2.579-1.502-1.327-2.415-2.655-4.83-3.981-7.246-.923-1.68-3.503-.18-2.579 1.503m15.023 0l3.981 7.245c.923 1.68 3.503.18 2.579-1.502-1.328-2.415-2.655-4.83-3.981-7.246-.925-1.68-3.503-.18-2.579 1.503" fill="#FFF"/>
        </g>
        <g>
            <path stroke="currentColor" opacity=".023" d="M.5.5h99v99H.5z"/>
            <path fill="#FFF" d="M77.031 57.407l-.421-3.002-12.819 1.871-10.317-6.072 10.316-6.071 12.82 1.871.421-3-9.069-1.327L82 33.416l-1.487-2.627-14.04 8.264 3.411-8.672-2.761-1.127-4.82 12.252-10.077 5.93v-12l8-10.382-2.34-1.874-5.66 7.346V14H49.25v16.526l-5.66-7.346-2.337 1.874 8 10.382v12.282l-10.555-6.212-4.821-12.252-2.762 1.129 3.41 8.67-14.037-8.264L19 33.416l14.038 8.261-9.07 1.327.422 3 12.819-1.871 10.317 6.07-10.32 6.073-12.816-1.871-.423 3.002 9.071 1.324L19 66.993l1.487 2.626 14.04-8.263-3.413 8.672 2.762 1.127 4.82-12.253 10.555-6.21v12.233l-8 10.384 2.34 1.872 5.66-7.345v15.558h2.975V69.836l5.66 7.345 2.34-1.872-8-10.383V52.972l10.077 5.93 4.82 12.253 2.761-1.127-3.41-8.672 14.04 8.263L82 66.993l-14.038-8.262 9.07-1.324"/>
        </g>
    </g>
</svg>
